<?xml version="1.0" encoding="UTF-8" standalone="no"?>
<!DOCTYPE svg PUBLIC "-//W3C//DTD SVG 1.1//EN"
 "http://www.w3.org/Graphics/SVG/1.1/DTD/svg11.dtd">
<!-- Generated by graphviz version 2.40.1 (20161225.0304)
 -->
<!-- Title: Users Pages: 1 -->
<svg width="715pt" height="742pt"
 viewBox="0.00 0.00 715.00 742.00" xmlns="http://www.w3.org/2000/svg" xmlns:xlink="http://www.w3.org/1999/xlink">
<g id="graph0" class="graph" transform="scale(1 1) rotate(0) translate(4 738)">
<title>Users</title>
<polygon fill="#ffffff" stroke="transparent" points="-4,4 -4,-738 711,-738 711,4 -4,4"/>
<!-- Users -->
<g id="node1" class="node">
<title>Users</title>
<polygon fill="#efefef" stroke="transparent" points="46,-225.5 46,-260.5 436,-260.5 436,-225.5 46,-225.5"/>
<polygon fill="none" stroke="#000000" points="46,-225.5 46,-260.5 436,-260.5 436,-225.5 46,-225.5"/>
<text text-anchor="start" x="166.5465" y="-238.3" font-family="Arial Bold" font-size="18.00" fill="#000000">Users</text>
<text text-anchor="start" x="213.5391" y="-238.3" font-family="Arial" font-size="14.00" fill="#000000"> </text>
<text text-anchor="start" x="217.4297" y="-238.3" font-family="Arial" font-size="14.00" fill="#666666">[BASIC TABLE]</text>
<polygon fill="none" stroke="#000000" points="46,-195.5 46,-225.5 436,-225.5 436,-195.5 46,-195.5"/>
<text text-anchor="start" x="53" y="-206.9" font-family="Arial" font-size="14.00" fill="#000000">UserId </text>
<text text-anchor="start" x="98.1136" y="-206.9" font-family="Arial" font-size="14.00" fill="#666666">[INT64]</text>
<polygon fill="none" stroke="#000000" points="46,-165.5 46,-195.5 436,-195.5 436,-165.5 46,-165.5"/>
<text text-anchor="start" x="53" y="-176.9" font-family="Arial" font-size="14.00" fill="#000000">Name </text>
<text text-anchor="start" x="94.223" y="-176.9" font-family="Arial" font-size="14.00" fill="#666666">[STRING(32)]</text>
<polygon fill="none" stroke="#000000" points="46,-135.5 46,-165.5 436,-165.5 436,-135.5 46,-135.5"/>
<text text-anchor="start" x="53" y="-146.9" font-family="Arial" font-size="14.00" fill="#000000">Mail </text>
<text text-anchor="start" x="82.547" y="-146.9" font-family="Arial" font-size="14.00" fill="#666666">[STRING(64)]</text>
<polygon fill="none" stroke="#000000" points="46,-105.5 46,-135.5 436,-135.5 436,-105.5 46,-105.5"/>
<text text-anchor="start" x="53" y="-116.9" font-family="Arial" font-size="14.00" fill="#000000">Password </text>
<text text-anchor="start" x="118.3422" y="-116.9" font-family="Arial" font-size="14.00" fill="#666666">[STRING(64)]</text>
<polygon fill="none" stroke="#000000" points="46,-75.5 46,-105.5 436,-105.5 436,-75.5 46,-75.5"/>
<text text-anchor="start" x="53" y="-86.9" font-family="Arial" font-size="14.00" fill="#000000">CreatedAt </text>
<text text-anchor="start" x="119.906" y="-86.9" font-family="Arial" font-size="14.00" fill="#666666">[TIMESTAMP (allow_commit_timestamp=TRUE)]</text>
<polygon fill="none" stroke="#000000" points="46,-45.5 46,-75.5 436,-75.5 436,-45.5 46,-45.5"/>
<text text-anchor="start" x="52.9653" y="-56.9" font-family="Arial" font-size="14.00" fill="#000000">UpdatedAt </text>
<text text-anchor="start" x="122.9933" y="-56.9" font-family="Arial" font-size="14.00" fill="#666666">[TIMESTAMP (allow_commit_timestamp=TRUE)]</text>
<polygon fill="none" stroke="#000000" stroke-width="3" points="44.5,-44.5 44.5,-262.5 437.5,-262.5 437.5,-44.5 44.5,-44.5"/>
</g>
<!-- Characters -->
<g id="node2" class="node">
<title>Characters</title>
<polygon fill="#efefef" stroke="transparent" points="46,-655.5 46,-690.5 436,-690.5 436,-655.5 46,-655.5"/>
<polygon fill="none" stroke="#000000" points="46,-655.5 46,-690.5 436,-690.5 436,-655.5 46,-655.5"/>
<text text-anchor="start" x="146.04" y="-668.3" font-family="Arial Bold" font-size="18.00" fill="#000000">Characters</text>
<text text-anchor="start" x="234.0456" y="-668.3" font-family="Arial" font-size="14.00" fill="#000000"> </text>
<text text-anchor="start" x="237.9362" y="-668.3" font-family="Arial" font-size="14.00" fill="#666666">[BASIC TABLE]</text>
<polygon fill="none" stroke="#000000" points="46,-625.5 46,-655.5 436,-655.5 436,-625.5 46,-625.5"/>
<text text-anchor="start" x="53" y="-636.9" font-family="Arial" font-size="14.00" fill="#000000">Id </text>
<text text-anchor="start" x="68.5638" y="-636.9" font-family="Arial" font-size="14.00" fill="#666666">[INT64]</text>
<polygon fill="none" stroke="#000000" points="46,-595.5 46,-625.5 436,-625.5 436,-595.5 46,-595.5"/>
<text text-anchor="start" x="53" y="-606.9" font-family="Arial" font-size="14.00" fill="#000000">UserId </text>
<text text-anchor="start" x="98.1136" y="-606.9" font-family="Arial" font-size="14.00" fill="#666666">[INT64]</text>
<polygon fill="none" stroke="#000000" points="46,-565.5 46,-595.5 436,-595.5 436,-565.5 46,-565.5"/>
<text text-anchor="start" x="53" y="-576.9" font-family="Arial" font-size="14.00" fill="#000000">CharacterId </text>
<text text-anchor="start" x="130.0126" y="-576.9" font-family="Arial" font-size="14.00" fill="#666666">[INT64]</text>
<polygon fill="none" stroke="#000000" points="46,-535.5 46,-565.5 436,-565.5 436,-535.5 46,-535.5"/>
<text text-anchor="start" x="53" y="-546.9" font-family="Arial" font-size="14.00" fill="#000000">Name </text>
<text text-anchor="start" x="94.223" y="-546.9" font-family="Arial" font-size="14.00" fill="#666666">[STRING(16)]</text>
<polygon fill="none" stroke="#000000" points="46,-505.5 46,-535.5 436,-535.5 436,-505.5 46,-505.5"/>
<text text-anchor="start" x="53" y="-516.9" font-family="Arial" font-size="14.00" fill="#000000">Level </text>
<text text-anchor="start" x="90.345" y="-516.9" font-family="Arial" font-size="14.00" fill="#666666">[INT64]</text>
<polygon fill="none" stroke="#000000" points="46,-475.5 46,-505.5 436,-505.5 436,-475.5 46,-475.5"/>
<text text-anchor="start" x="53" y="-486.9" font-family="Arial" font-size="14.00" fill="#000000">Experience </text>
<text text-anchor="start" x="126.9074" y="-486.9" font-family="Arial" font-size="14.00" fill="#666666">[INT64]</text>
<polygon fill="none" stroke="#000000" points="46,-445.5 46,-475.5 436,-475.5 436,-445.5 46,-445.5"/>
<text text-anchor="start" x="53" y="-456.9" font-family="Arial" font-size="14.00" fill="#000000">Strength </text>
<text text-anchor="start" x="109.7994" y="-456.9" font-family="Arial" font-size="14.00" fill="#666666">[INT64]</text>
<polygon fill="none" stroke="#000000" points="46,-415.5 46,-445.5 436,-445.5 436,-415.5 46,-415.5"/>
<text text-anchor="start" x="53" y="-426.9" font-family="Arial" font-size="14.00" fill="#000000">CreatedAt </text>
<text text-anchor="start" x="119.906" y="-426.9" font-family="Arial" font-size="14.00" fill="#666666">[TIMESTAMP (allow_commit_timestamp=TRUE)]</text>
<polygon fill="none" stroke="#000000" points="46,-385.5 46,-415.5 436,-415.5 436,-385.5 46,-385.5"/>
<text text-anchor="start" x="52.9653" y="-396.9" font-family="Arial" font-size="14.00" fill="#000000">UpdatedAt </text>
<text text-anchor="start" x="122.9933" y="-396.9" font-family="Arial" font-size="14.00" fill="#666666">[TIMESTAMP (allow_commit_timestamp=TRUE)]</text>
</g>
<!-- Characters&#45;&gt;Users -->
<g id="edge1" class="edge">
<title>Characters:UserId&#45;&gt;Users:UserId</title>
<path fill="none" stroke="#000000" d="M446.0098,-608.7166C524.7533,-579.8604 521.4167,-210.5 436,-210.5"/>
<polygon fill="#000000" stroke="#000000" points="445.845,-608.7459 435.2107,-606.0698 440.9225,-609.623 436,-610.5 436,-610.5 436,-610.5 440.9225,-609.623 436.7893,-614.9302 445.845,-608.7459 445.845,-608.7459"/>
<text text-anchor="start" x="443.106" y="-620.5" font-family="Arial" font-size="10.00" fill="#000000">INTERLEAVE IN PARENT Users ON DELETE CASCADE</text>
</g>
</g>
</svg>
